<?xml version="1.0" encoding="UTF-8"?>
<svg id="Capa_2" data-name="Capa 2" xmlns="http://www.w3.org/2000/svg" viewBox="0 0 284.28 330">
  <defs>
    <style>
      .cls-1 {
        fill: #efeff9;
      }
    </style>
  </defs>
  <g id="Capa_1-2" data-name="Capa 1">
    <g>
      <path class="cls-1" d="M234.23,102h-63.3l44.76-44.76c2.34-2.34,2.34-6.14,0-8.49l-21.21-21.21c-2.34-2.34-6.14-2.34-8.49,0l-44.76,44.76V6c0-3.31-2.69-6-6-6h-30c-3.31,0-6,2.69-6,6v66.3L54.47,27.54c-2.34-2.34-6.14-2.34-8.49,0l-21.21,21.21c-2.34,2.34-2.34,6.14,0,8.49l44.76,44.76H6.23c-3.31,0-6,2.69-6,6v30c0,3.31,2.69,6,6,6h228c3.31,0,6-2.69,6-6v-30c0-3.31-2.69-6-6-6Z"/>
      <path class="cls-1" d="M0,168v81c0,44.74,53.73,81,120,81s120-36.26,120-81v-81H0ZM198,249c0,21.54-34.82,39-77.77,39s-77.77-17.46-77.77-39v-39h155.54v39Z"/>
      <path class="cls-1" d="M254.44,168h29.83v21.34c0,8.64-.74,15.45-2.23,20.43-1.49,5-4.3,9.47-8.44,13.43-4.15,3.96-9.4,7.08-15.77,9.34l-5.84-12.32s0,0,0,0c6.02-1.98,10.3-4.71,12.85-8.17,2.55-3.47,3.89-8.21,4.03-14.23,0,0-14.44,0-14.44,0v-29.83Z"/>
    </g>
  </g>
</svg>