<svg width="35" height="40" viewBox="0 0 35 40" fill="none" xmlns="http://www.w3.org/2000/svg">
<path d="M28.3915 12.3636H20.7187L26.1442 6.93818C26.4278 6.65455 26.4278 6.19394 26.1442 5.90909L23.5733 3.33818C23.2896 3.05455 22.829 3.05455 22.5442 3.33818L17.1187 8.76364V0.727273C17.1187 0.326061 16.7927 0 16.3915 0H12.7551C12.3539 0 12.0278 0.326061 12.0278 0.727273V8.76364L6.60238 3.33818C6.31874 3.05455 5.85813 3.05455 5.57329 3.33818L3.00238 5.90909C2.71874 6.19273 2.71874 6.65333 3.00238 6.93818L8.42783 12.3636H0.755105C0.353893 12.3636 0.027832 12.6897 0.027832 13.0909V16.7273C0.027832 17.1285 0.353893 17.4545 0.755105 17.4545H28.3915C28.7927 17.4545 29.1187 17.1285 29.1187 16.7273V13.0909C29.1187 12.6897 28.7927 12.3636 28.3915 12.3636Z" fill="#6E91FF"/>
<path d="M0 20.3636V30.1818C0 35.6049 6.51273 40 14.5455 40C22.5782 40 29.0909 35.6049 29.0909 30.1818V20.3636H0ZM24 30.1818C24 32.7927 19.7794 34.9091 14.5733 34.9091C9.36727 34.9091 5.14667 32.7927 5.14667 30.1818V25.4546H24V30.1818Z" fill="#6E91FF"/>
<path d="M30.8414 20.3636H34.4572V22.9503C34.4572 23.9976 34.3675 24.823 34.1869 25.4267C34.0063 26.0327 33.6656 26.5745 33.1638 27.0545C32.6608 27.5345 32.0244 27.9127 31.2523 28.1867L30.5444 26.6933C31.2741 26.4533 31.7929 26.1224 32.102 25.703C32.4111 25.2824 32.5735 24.7079 32.5905 23.9782H30.8402V20.3624L30.8414 20.3636Z" fill="#6E91FF"/>
</svg>
