<svg width="38" height="35" viewBox="0 0 38 35" fill="none" xmlns="http://www.w3.org/2000/svg">
<path d="M26.0374 19.6885L22.0361 23.6898L33.3463 35L37.3476 30.9987L26.0374 19.6885Z" fill="#533FFF"/>
<path d="M29.0479 13.9345C32.6883 13.9345 35.6497 10.9731 35.6497 7.3327C35.6497 6.23869 35.3479 5.22013 34.8763 4.31474L29.7835 9.40755L26.973 6.59707L32.0658 1.50426C31.1604 1.03271 30.1419 0.730912 29.0479 0.730912C25.4074 0.730912 22.4461 3.69229 22.4461 7.3327C22.4461 8.10605 22.597 8.84168 22.8422 9.52072L19.3527 13.0102L15.9952 9.65276L17.3344 8.31354L14.6748 5.65396L18.6736 1.65516C16.4667 -0.551721 12.8829 -0.551721 10.676 1.65516L3.9988 8.3324L6.65837 10.992H1.33922L0 12.3312L6.67724 19.0084L8.01646 17.6692V12.3312L10.676 14.9908L12.0153 13.6516L15.3727 17.009L1.39581 30.986L5.3946 34.9848L26.8598 13.5384C27.5389 13.7836 28.2745 13.9345 29.0479 13.9345Z" fill="#533FFF"/>
</svg>
