<svg width="40" height="27" viewBox="0 0 40 27" fill="none" xmlns="http://www.w3.org/2000/svg">
<path d="M20 3.6C26.8909 3.6 33.0364 7.434 36.0364 13.5C33.0364 19.566 26.9091 23.4 20 23.4C13.0909 23.4 6.96364 19.566 3.96364 13.5C6.96364 7.434 13.1091 3.6 20 3.6ZM20 0C10.9091 0 3.14545 5.598 0 13.5C3.14545 21.402 10.9091 27 20 27C29.0909 27 36.8545 21.402 40 13.5C36.8545 5.598 29.0909 0 20 0ZM20 9C22.5091 9 24.5455 11.016 24.5455 13.5C24.5455 15.984 22.5091 18 20 18C17.4909 18 15.4545 15.984 15.4545 13.5C15.4545 11.016 17.4909 9 20 9ZM20 5.4C15.4909 5.4 11.8182 9.036 11.8182 13.5C11.8182 17.964 15.4909 21.6 20 21.6C24.5091 21.6 28.1818 17.964 28.1818 13.5C28.1818 9.036 24.5091 5.4 20 5.4Z" fill="#EFEFF9"/>
</svg>
