<svg width="16" height="16" viewBox="0 0 16 16" fill="none" xmlns="http://www.w3.org/2000/svg">
<path d="M2.5 1V4M1 2.5L4 2.5M2.5 12V13.5M2.5 13.5V15M2.5 13.5H1M2.5 13.5H4M8.5 2L9.12285 3.55713C9.81982 5.29955 11.2005 6.68018 12.9429 7.37715L14.5 8L12.4147 9.04266C10.9921 9.75393 9.86108 10.9376 9.21514 12.3909L8.5 14L7.78486 12.3909C7.13892 10.9376 6.00786 9.75393 4.58533 9.04266L2.5 8L4.05713 7.37715C5.79955 6.68018 7.18018 5.29955 7.87715 3.55713L8.5 2Z" stroke="black" stroke-width="2" stroke-linecap="round" stroke-linejoin="round"/>
</svg>
